<svg xmlns="http://www.w3.org/2000/svg" viewBox="0 0 760 400" font-family="-apple-system,BlinkMacSystemFont,Segoe UI,Roboto,Helvetica,Arial,sans-serif" role="img" aria-label="Attention memory scaling: quadratic vs linear"><rect width="760" height="400" fill="#ffffff"/><line x1="66.0" y1="28" x2="66.0" y2="350" stroke="#ececec"/><text x="66.0" y="372" font-size="12" fill="#6b6b66" text-anchor="middle">1K</text><line x1="232.5" y1="28" x2="232.5" y2="350" stroke="#ececec"/><text x="232.5" y="372" font-size="12" fill="#6b6b66" text-anchor="middle">10K</text><line x1="399.0" y1="28" x2="399.0" y2="350" stroke="#ececec"/><text x="399.0" y="372" font-size="12" fill="#6b6b66" text-anchor="middle">100K</text><line x1="565.5" y1="28" x2="565.5" y2="350" stroke="#ececec"/><text x="565.5" y="372" font-size="12" fill="#6b6b66" text-anchor="middle">1M</text><line x1="732.0" y1="28" x2="732.0" y2="350" stroke="#ececec"/><text x="732.0" y="372" font-size="12" fill="#6b6b66" text-anchor="middle">10M</text><path d="M66.0 350.0 L71.5 348.5 L77.1 346.9 L82.7 345.4 L88.2 343.9 L93.7 342.3 L99.3 340.8 L104.9 339.3 L110.4 337.7 L115.9 336.2 L121.5 334.7 L127.1 333.1 L132.6 331.6 L138.2 330.1 L143.7 328.5 L149.3 327.0 L154.8 325.5 L160.3 323.9 L165.9 322.4 L171.4 320.9 L177.0 319.3 L182.6 317.8 L188.1 316.3 L193.6 314.7 L199.2 313.2 L204.8 311.7 L210.3 310.1 L215.8 308.6 L221.4 307.1 L227.0 305.5 L232.5 304.0 L238.0 302.5 L243.6 300.9 L249.1 299.4 L254.7 297.9 L260.3 296.3 L265.8 294.8 L271.4 293.3 L276.9 291.7 L282.4 290.2 L288.0 288.7 L293.6 287.1 L299.1 285.6 L304.7 284.1 L310.2 282.5 L315.8 281.0 L321.3 279.5 L326.8 277.9 L332.4 276.4 L337.9 274.9 L343.5 273.3 L349.1 271.8 L354.6 270.3 L360.1 268.7 L365.7 267.2 L371.2 265.7 L376.8 264.1 L382.4 262.6 L387.9 261.1 L393.5 259.5 L399.0 258.0 L404.5 256.5 L410.1 254.9 L415.6 253.4 L421.2 251.9 L426.7 250.3 L432.3 248.8 L437.9 247.3 L443.4 245.7 L448.9 244.2 L454.5 242.7 L460.1 241.1 L465.6 239.6 L471.2 238.1 L476.7 236.5 L482.3 235.0 L487.8 233.5 L493.3 231.9 L498.9 230.4 L504.4 228.9 L510.0 227.3 L515.5 225.8 L521.1 224.3 L526.6 222.7 L532.2 221.2 L537.8 219.7 L543.3 218.1 L548.9 216.6 L554.4 215.1 L560.0 213.5 L565.5 212.0 L571.0 210.5 L576.6 208.9 L582.1 207.4 L587.7 205.9 L593.2 204.3 L598.8 202.8 L604.4 201.3 L609.9 199.7 L615.4 198.2 L621.0 196.7 L626.6 195.1 L632.1 193.6 L637.7 192.1 L643.2 190.5 L648.8 189.0 L654.3 187.5 L659.8 185.9 L665.4 184.4 L670.9 182.9 L676.5 181.3 L682.1 179.8 L687.6 178.3 L693.1 176.7 L698.7 175.2 L704.3 173.7 L709.8 172.1 L715.4 170.6 L720.9 169.1 L726.5 167.5 L732.0 166.0 " fill="none" stroke="#b5482e" stroke-width="2.5"/><path d="M66.0 350.0 L71.5 349.2 L77.1 348.5 L82.7 347.7 L88.2 346.9 L93.7 346.2 L99.3 345.4 L104.9 344.6 L110.4 343.9 L115.9 343.1 L121.5 342.3 L127.1 341.6 L132.6 340.8 L138.2 340.0 L143.7 339.3 L149.3 338.5 L154.8 337.7 L160.3 337.0 L165.9 336.2 L171.4 335.4 L177.0 334.7 L182.6 333.9 L188.1 333.1 L193.6 332.4 L199.2 331.6 L204.8 330.8 L210.3 330.1 L215.8 329.3 L221.4 328.5 L227.0 327.8 L232.5 327.0 L238.0 326.2 L243.6 325.5 L249.1 324.7 L254.7 323.9 L260.3 323.2 L265.8 322.4 L271.4 321.6 L276.9 320.9 L282.4 320.1 L288.0 319.3 L293.6 318.6 L299.1 317.8 L304.7 317.0 L310.2 316.3 L315.8 315.5 L321.3 314.7 L326.8 314.0 L332.4 313.2 L337.9 312.4 L343.5 311.7 L349.1 310.9 L354.6 310.1 L360.1 309.4 L365.7 308.6 L371.2 307.8 L376.8 307.1 L382.4 306.3 L387.9 305.5 L393.5 304.8 L399.0 304.0 L404.5 303.2 L410.1 302.5 L415.6 301.7 L421.2 300.9 L426.7 300.2 L432.3 299.4 L437.9 298.6 L443.4 297.9 L448.9 297.1 L454.5 296.3 L460.1 295.6 L465.6 294.8 L471.2 294.0 L476.7 293.3 L482.3 292.5 L487.8 291.7 L493.3 291.0 L498.9 290.2 L504.4 289.4 L510.0 288.7 L515.5 287.9 L521.1 287.1 L526.6 286.4 L532.2 285.6 L537.8 284.8 L543.3 284.1 L548.9 283.3 L554.4 282.5 L560.0 281.8 L565.5 281.0 L571.0 280.2 L576.6 279.5 L582.1 278.7 L587.7 277.9 L593.2 277.2 L598.8 276.4 L604.4 275.6 L609.9 274.9 L615.4 274.1 L621.0 273.3 L626.6 272.6 L632.1 271.8 L637.7 271.0 L643.2 270.3 L648.8 269.5 L654.3 268.7 L659.8 268.0 L665.4 267.2 L670.9 266.4 L676.5 265.7 L682.1 264.9 L687.6 264.1 L693.1 263.4 L698.7 262.6 L704.3 261.8 L709.8 261.1 L715.4 260.3 L720.9 259.5 L726.5 258.8 L732.0 258.0 " fill="none" stroke="#2f6f7a" stroke-width="2.5"/><text x="362.1" y="260.2" font-size="13" fill="#b5482e" font-weight="700" stroke="#ffffff" stroke-width="3.5" paint-order="stroke" stroke-linejoin="round">Standard attention — O(N²)</text><text x="557.9" y="300.1" font-size="13" fill="#2f6f7a" font-weight="700" text-anchor="end" stroke="#ffffff" stroke-width="3.5" paint-order="stroke" stroke-linejoin="round">FlashAttention / linear — O(N)</text><line x1="117.8" y1="28" x2="117.8" y2="350" stroke="#1b1b1a" stroke-dasharray="3 3" opacity="0.4"/><text x="121.8" y="40" font-size="11.5" fill="#1b1b1a">GPT-3 (2K)</text><line x1="565.5" y1="28" x2="565.5" y2="350" stroke="#1b1b1a" stroke-dasharray="3 3" opacity="0.4"/><text x="569.5" y="40" font-size="11.5" fill="#1b1b1a">1M context</text><text x="18" y="189" font-size="12.5" fill="#1b1b1a" text-anchor="middle" transform="rotate(-90 18 189)">Relative cost (log, =1 at 1K)</text><text x="399" y="392" font-size="12.5" fill="#1b1b1a" text-anchor="middle">Sequence length (tokens, log scale)</text></svg>