<svg xmlns="http://www.w3.org/2000/svg" viewBox="0 0 760 300" font-family="-apple-system,BlinkMacSystemFont,Segoe UI,Roboto,Helvetica,Arial,sans-serif" role="img" aria-label="Where attention's two costs come from. Left: a causal score matrix — each new token scores against every earlier one, so compute grows with N squared. Right: every past token's key and value vectors stay cached, so memory grows linearly with N.">
<rect width="760" height="300" fill="#ffffff"/>
<text x="90" y="38" font-size="13" fill="#1b1b1a" font-weight="700">the score matrix</text>
<text x="285" y="60" font-size="11" fill="#6b6b66">keys →</text>
<text x="76" y="150" font-size="11" fill="#6b6b66" text-anchor="middle" transform="rotate(-90 76 150)">queries ↓</text>
<rect x="90" y="60" width="14" height="14" fill="#b5482e" opacity="0.45"/><rect x="90" y="75" width="14" height="14" fill="#b5482e" opacity="0.2"/><rect x="105" y="75" width="14" height="14" fill="#b5482e" opacity="0.45"/><rect x="90" y="90" width="14" height="14" fill="#b5482e" opacity="0.2"/><rect x="105" y="90" width="14" height="14" fill="#b5482e" opacity="0.2"/><rect x="120" y="90" width="14" height="14" fill="#b5482e" opacity="0.45"/><rect x="90" y="105" width="14" height="14" fill="#b5482e" opacity="0.2"/><rect x="105" y="105" width="14" height="14" fill="#b5482e" opacity="0.2"/><rect x="120" y="105" width="14" height="14" fill="#b5482e" opacity="0.2"/><rect x="135" y="105" width="14" height="14" fill="#b5482e" opacity="0.45"/><rect x="90" y="120" width="14" height="14" fill="#b5482e" opacity="0.2"/><rect x="105" y="120" width="14" height="14" fill="#b5482e" opacity="0.2"/><rect x="120" y="120" width="14" height="14" fill="#b5482e" opacity="0.2"/><rect x="135" y="120" width="14" height="14" fill="#b5482e" opacity="0.2"/><rect x="150" y="120" width="14" height="14" fill="#b5482e" opacity="0.45"/><rect x="90" y="135" width="14" height="14" fill="#b5482e" opacity="0.2"/><rect x="105" y="135" width="14" height="14" fill="#b5482e" opacity="0.2"/><rect x="120" y="135" width="14" height="14" fill="#b5482e" opacity="0.2"/><rect x="135" y="135" width="14" height="14" fill="#b5482e" opacity="0.2"/><rect x="150" y="135" width="14" height="14" fill="#b5482e" opacity="0.2"/><rect x="165" y="135" width="14" height="14" fill="#b5482e" opacity="0.45"/><rect x="90" y="150" width="14" height="14" fill="#b5482e" opacity="0.2"/><rect x="105" y="150" width="14" height="14" fill="#b5482e" opacity="0.2"/><rect x="120" y="150" width="14" height="14" fill="#b5482e" opacity="0.2"/><rect x="135" y="150" width="14" height="14" fill="#b5482e" opacity="0.2"/><rect x="150" y="150" width="14" height="14" fill="#b5482e" opacity="0.2"/><rect x="165" y="150" width="14" height="14" fill="#b5482e" opacity="0.2"/><rect x="180" y="150" width="14" height="14" fill="#b5482e" opacity="0.45"/><rect x="90" y="165" width="14" height="14" fill="#b5482e" opacity="0.2"/><rect x="105" y="165" width="14" height="14" fill="#b5482e" opacity="0.2"/><rect x="120" y="165" width="14" height="14" fill="#b5482e" opacity="0.2"/><rect x="135" y="165" width="14" height="14" fill="#b5482e" opacity="0.2"/><rect x="150" y="165" width="14" height="14" fill="#b5482e" opacity="0.2"/><rect x="165" y="165" width="14" height="14" fill="#b5482e" opacity="0.2"/><rect x="180" y="165" width="14" height="14" fill="#b5482e" opacity="0.2"/><rect x="195" y="165" width="14" height="14" fill="#b5482e" opacity="0.45"/><rect x="90" y="180" width="14" height="14" fill="#b5482e" opacity="0.2"/><rect x="105" y="180" width="14" height="14" fill="#b5482e" opacity="0.2"/><rect x="120" y="180" width="14" height="14" fill="#b5482e" opacity="0.2"/><rect x="135" y="180" width="14" height="14" fill="#b5482e" opacity="0.2"/><rect x="150" y="180" width="14" height="14" fill="#b5482e" opacity="0.2"/><rect x="165" y="180" width="14" height="14" fill="#b5482e" opacity="0.2"/><rect x="180" y="180" width="14" height="14" fill="#b5482e" opacity="0.2"/><rect x="195" y="180" width="14" height="14" fill="#b5482e" opacity="0.2"/><rect x="210" y="180" width="14" height="14" fill="#b5482e" opacity="0.45"/><rect x="90" y="195" width="14" height="14" fill="#b5482e" opacity="0.2"/><rect x="105" y="195" width="14" height="14" fill="#b5482e" opacity="0.2"/><rect x="120" y="195" width="14" height="14" fill="#b5482e" opacity="0.2"/><rect x="135" y="195" width="14" height="14" fill="#b5482e" opacity="0.2"/><rect x="150" y="195" width="14" height="14" fill="#b5482e" opacity="0.2"/><rect x="165" y="195" width="14" height="14" fill="#b5482e" opacity="0.2"/><rect x="180" y="195" width="14" height="14" fill="#b5482e" opacity="0.2"/><rect x="195" y="195" width="14" height="14" fill="#b5482e" opacity="0.2"/><rect x="210" y="195" width="14" height="14" fill="#b5482e" opacity="0.2"/><rect x="225" y="195" width="14" height="14" fill="#b5482e" opacity="0.45"/><rect x="90" y="210" width="14" height="14" fill="#b5482e" opacity="0.2"/><rect x="105" y="210" width="14" height="14" fill="#b5482e" opacity="0.2"/><rect x="120" y="210" width="14" height="14" fill="#b5482e" opacity="0.2"/><rect x="135" y="210" width="14" height="14" fill="#b5482e" opacity="0.2"/><rect x="150" y="210" width="14" height="14" fill="#b5482e" opacity="0.2"/><rect x="165" y="210" width="14" height="14" fill="#b5482e" opacity="0.2"/><rect x="180" y="210" width="14" height="14" fill="#b5482e" opacity="0.2"/><rect x="195" y="210" width="14" height="14" fill="#b5482e" opacity="0.2"/><rect x="210" y="210" width="14" height="14" fill="#b5482e" opacity="0.2"/><rect x="225" y="210" width="14" height="14" fill="#b5482e" opacity="0.2"/><rect x="240" y="210" width="14" height="14" fill="#b5482e" opacity="0.45"/><rect x="90" y="225" width="14" height="14" fill="#b5482e" opacity="0.2"/><rect x="105" y="225" width="14" height="14" fill="#b5482e" opacity="0.2"/><rect x="120" y="225" width="14" height="14" fill="#b5482e" opacity="0.2"/><rect x="135" y="225" width="14" height="14" fill="#b5482e" opacity="0.2"/><rect x="150" y="225" width="14" height="14" fill="#b5482e" opacity="0.2"/><rect x="165" y="225" width="14" height="14" fill="#b5482e" opacity="0.2"/><rect x="180" y="225" width="14" height="14" fill="#b5482e" opacity="0.2"/><rect x="195" y="225" width="14" height="14" fill="#b5482e" opacity="0.2"/><rect x="210" y="225" width="14" height="14" fill="#b5482e" opacity="0.2"/><rect x="225" y="225" width="14" height="14" fill="#b5482e" opacity="0.2"/><rect x="240" y="225" width="14" height="14" fill="#b5482e" opacity="0.2"/><rect x="255" y="225" width="14" height="14" fill="#b5482e" opacity="0.45"/>
<text x="180" y="262" font-size="11.5" fill="#6b6b66" text-anchor="middle">one row per new token — compute ∝ N²</text>
<text x="430" y="38" font-size="13" fill="#1b1b1a" font-weight="700">the KV cache</text>
<text x="424" y="71" font-size="10.5" fill="#6b6b66" text-anchor="end">tokens</text>
<rect x="430" y="60" width="14" height="14" fill="#f6f6f4" stroke="#ececec"/><rect x="446" y="60" width="14" height="14" fill="#f6f6f4" stroke="#ececec"/><rect x="462" y="60" width="14" height="14" fill="#f6f6f4" stroke="#ececec"/><rect x="478" y="60" width="14" height="14" fill="#f6f6f4" stroke="#ececec"/><rect x="494" y="60" width="14" height="14" fill="#f6f6f4" stroke="#ececec"/><rect x="510" y="60" width="14" height="14" fill="#f6f6f4" stroke="#ececec"/><rect x="526" y="60" width="14" height="14" fill="#f6f6f4" stroke="#ececec"/><rect x="542" y="60" width="14" height="14" fill="#f6f6f4" stroke="#ececec"/><rect x="558" y="60" width="14" height="14" fill="#f6f6f4" stroke="#ececec"/><rect x="574" y="60" width="14" height="14" fill="#f6f6f4" stroke="#ececec"/><rect x="590" y="60" width="14" height="14" fill="#f6f6f4" stroke="#ececec"/><rect x="606" y="60" width="14" height="14" fill="#f6f6f4" stroke="#ececec"/>
<text x="424" y="102" font-size="10.5" fill="#2f6f7a" text-anchor="end">K</text>
<text x="424" y="118" font-size="10.5" fill="#2f6f7a" text-anchor="end">V</text>
<rect x="430" y="92" width="14" height="12" fill="#2f6f7a" opacity="0.5"/><rect x="446" y="92" width="14" height="12" fill="#2f6f7a" opacity="0.5"/><rect x="462" y="92" width="14" height="12" fill="#2f6f7a" opacity="0.5"/><rect x="478" y="92" width="14" height="12" fill="#2f6f7a" opacity="0.5"/><rect x="494" y="92" width="14" height="12" fill="#2f6f7a" opacity="0.5"/><rect x="510" y="92" width="14" height="12" fill="#2f6f7a" opacity="0.5"/><rect x="526" y="92" width="14" height="12" fill="#2f6f7a" opacity="0.5"/><rect x="542" y="92" width="14" height="12" fill="#2f6f7a" opacity="0.5"/><rect x="558" y="92" width="14" height="12" fill="#2f6f7a" opacity="0.5"/><rect x="574" y="92" width="14" height="12" fill="#2f6f7a" opacity="0.5"/><rect x="590" y="92" width="14" height="12" fill="#2f6f7a" opacity="0.5"/><rect x="606" y="92" width="14" height="12" fill="#2f6f7a" opacity="0.5"/><rect x="430" y="108" width="14" height="12" fill="#2f6f7a" opacity="0.3"/><rect x="446" y="108" width="14" height="12" fill="#2f6f7a" opacity="0.3"/><rect x="462" y="108" width="14" height="12" fill="#2f6f7a" opacity="0.3"/><rect x="478" y="108" width="14" height="12" fill="#2f6f7a" opacity="0.3"/><rect x="494" y="108" width="14" height="12" fill="#2f6f7a" opacity="0.3"/><rect x="510" y="108" width="14" height="12" fill="#2f6f7a" opacity="0.3"/><rect x="526" y="108" width="14" height="12" fill="#2f6f7a" opacity="0.3"/><rect x="542" y="108" width="14" height="12" fill="#2f6f7a" opacity="0.3"/><rect x="558" y="108" width="14" height="12" fill="#2f6f7a" opacity="0.3"/><rect x="574" y="108" width="14" height="12" fill="#2f6f7a" opacity="0.3"/><rect x="590" y="108" width="14" height="12" fill="#2f6f7a" opacity="0.3"/><rect x="606" y="108" width="14" height="12" fill="#2f6f7a" opacity="0.3"/>
<path d="M430 134 H616" stroke="#6b6b66" stroke-width="1.2"/><path d="M610 130 L618 134 L610 138" fill="none" stroke="#6b6b66" stroke-width="1.2" stroke-linecap="round" stroke-linejoin="round"/>
<text x="524" y="152" font-size="11.5" fill="#6b6b66" text-anchor="middle">every past token's K and V stay cached for reuse</text>
<text x="524" y="168" font-size="11.5" fill="#6b6b66" text-anchor="middle">memory ∝ N — and it never shrinks while generating</text>
</svg>
