<svg xmlns="http://www.w3.org/2000/svg" viewBox="0 0 760 235" font-family="-apple-system,BlinkMacSystemFont,Segoe UI,Roboto,Helvetica,Arial,sans-serif" role="img" aria-label="Doubling the number of tokens roughly quadruples the attention score matrix (compute grows with N squared) but only doubles the KV cache (memory grows with N). Shown with countable cells: 4 tokens give 10 pairs and 8 cached vectors; 8 tokens give 36 pairs and 16 cached vectors.">
<rect width="760" height="235" fill="#ffffff"/>
<text x="64" y="30" font-size="13" fill="#1b1b1a" font-weight="700">compute — one cell per token pair</text>
<rect x="80" y="96" width="12" height="12" fill="#b5482e" opacity="0.45"/><rect x="80" y="109" width="12" height="12" fill="#b5482e" opacity="0.22"/><rect x="93" y="109" width="12" height="12" fill="#b5482e" opacity="0.45"/><rect x="80" y="122" width="12" height="12" fill="#b5482e" opacity="0.22"/><rect x="93" y="122" width="12" height="12" fill="#b5482e" opacity="0.22"/><rect x="106" y="122" width="12" height="12" fill="#b5482e" opacity="0.45"/><rect x="80" y="135" width="12" height="12" fill="#b5482e" opacity="0.22"/><rect x="93" y="135" width="12" height="12" fill="#b5482e" opacity="0.22"/><rect x="106" y="135" width="12" height="12" fill="#b5482e" opacity="0.22"/><rect x="119" y="135" width="12" height="12" fill="#b5482e" opacity="0.45"/>
<rect x="196" y="44" width="12" height="12" fill="#b5482e" opacity="0.45"/><rect x="196" y="57" width="12" height="12" fill="#b5482e" opacity="0.22"/><rect x="209" y="57" width="12" height="12" fill="#b5482e" opacity="0.45"/><rect x="196" y="70" width="12" height="12" fill="#b5482e" opacity="0.22"/><rect x="209" y="70" width="12" height="12" fill="#b5482e" opacity="0.22"/><rect x="222" y="70" width="12" height="12" fill="#b5482e" opacity="0.45"/><rect x="196" y="83" width="12" height="12" fill="#b5482e" opacity="0.22"/><rect x="209" y="83" width="12" height="12" fill="#b5482e" opacity="0.22"/><rect x="222" y="83" width="12" height="12" fill="#b5482e" opacity="0.22"/><rect x="235" y="83" width="12" height="12" fill="#b5482e" opacity="0.45"/><rect x="196" y="96" width="12" height="12" fill="#b5482e" opacity="0.22"/><rect x="209" y="96" width="12" height="12" fill="#b5482e" opacity="0.22"/><rect x="222" y="96" width="12" height="12" fill="#b5482e" opacity="0.22"/><rect x="235" y="96" width="12" height="12" fill="#b5482e" opacity="0.22"/><rect x="248" y="96" width="12" height="12" fill="#b5482e" opacity="0.45"/><rect x="196" y="109" width="12" height="12" fill="#b5482e" opacity="0.22"/><rect x="209" y="109" width="12" height="12" fill="#b5482e" opacity="0.22"/><rect x="222" y="109" width="12" height="12" fill="#b5482e" opacity="0.22"/><rect x="235" y="109" width="12" height="12" fill="#b5482e" opacity="0.22"/><rect x="248" y="109" width="12" height="12" fill="#b5482e" opacity="0.22"/><rect x="261" y="109" width="12" height="12" fill="#b5482e" opacity="0.45"/><rect x="196" y="122" width="12" height="12" fill="#b5482e" opacity="0.22"/><rect x="209" y="122" width="12" height="12" fill="#b5482e" opacity="0.22"/><rect x="222" y="122" width="12" height="12" fill="#b5482e" opacity="0.22"/><rect x="235" y="122" width="12" height="12" fill="#b5482e" opacity="0.22"/><rect x="248" y="122" width="12" height="12" fill="#b5482e" opacity="0.22"/><rect x="261" y="122" width="12" height="12" fill="#b5482e" opacity="0.22"/><rect x="274" y="122" width="12" height="12" fill="#b5482e" opacity="0.45"/><rect x="196" y="135" width="12" height="12" fill="#b5482e" opacity="0.22"/><rect x="209" y="135" width="12" height="12" fill="#b5482e" opacity="0.22"/><rect x="222" y="135" width="12" height="12" fill="#b5482e" opacity="0.22"/><rect x="235" y="135" width="12" height="12" fill="#b5482e" opacity="0.22"/><rect x="248" y="135" width="12" height="12" fill="#b5482e" opacity="0.22"/><rect x="261" y="135" width="12" height="12" fill="#b5482e" opacity="0.22"/><rect x="274" y="135" width="12" height="12" fill="#b5482e" opacity="0.22"/><rect x="287" y="135" width="12" height="12" fill="#b5482e" opacity="0.45"/>
<path d="M144 106 H186" stroke="#6b6b66" stroke-width="1.2"/><path d="M180 102 L188 106 L180 110" fill="none" stroke="#6b6b66" stroke-width="1.2" stroke-linecap="round" stroke-linejoin="round"/>
<text x="164" y="98" font-size="10.5" fill="#6b6b66" text-anchor="middle">2× tokens</text>
<text x="106" y="166" font-size="11.5" fill="#b5482e" text-anchor="middle" font-weight="600">10 pairs</text>
<text x="248" y="166" font-size="11.5" fill="#b5482e" text-anchor="middle" font-weight="600">36 pairs</text>
<text x="192" y="196" font-size="12" fill="#1b1b1a" text-anchor="middle">double the tokens → ~4× the compute</text>
<text x="192" y="212" font-size="11" fill="#6b6b66" text-anchor="middle">grows as N²</text>
<text x="430" y="30" font-size="13" fill="#1b1b1a" font-weight="700">memory — cached K and V per token</text>
<text x="444" y="112" font-size="10" fill="#2f6f7a" text-anchor="end">K</text>
<text x="444" y="124" font-size="10" fill="#2f6f7a" text-anchor="end">V</text>
<rect x="450" y="104" width="12" height="10" fill="#2f6f7a" opacity="0.5"/><rect x="450" y="115" width="12" height="10" fill="#2f6f7a" opacity="0.3"/><rect x="463" y="104" width="12" height="10" fill="#2f6f7a" opacity="0.5"/><rect x="463" y="115" width="12" height="10" fill="#2f6f7a" opacity="0.3"/><rect x="476" y="104" width="12" height="10" fill="#2f6f7a" opacity="0.5"/><rect x="476" y="115" width="12" height="10" fill="#2f6f7a" opacity="0.3"/><rect x="489" y="104" width="12" height="10" fill="#2f6f7a" opacity="0.5"/><rect x="489" y="115" width="12" height="10" fill="#2f6f7a" opacity="0.3"/>
<rect x="560" y="104" width="12" height="10" fill="#2f6f7a" opacity="0.5"/><rect x="560" y="115" width="12" height="10" fill="#2f6f7a" opacity="0.3"/><rect x="573" y="104" width="12" height="10" fill="#2f6f7a" opacity="0.5"/><rect x="573" y="115" width="12" height="10" fill="#2f6f7a" opacity="0.3"/><rect x="586" y="104" width="12" height="10" fill="#2f6f7a" opacity="0.5"/><rect x="586" y="115" width="12" height="10" fill="#2f6f7a" opacity="0.3"/><rect x="599" y="104" width="12" height="10" fill="#2f6f7a" opacity="0.5"/><rect x="599" y="115" width="12" height="10" fill="#2f6f7a" opacity="0.3"/><rect x="612" y="104" width="12" height="10" fill="#2f6f7a" opacity="0.5"/><rect x="612" y="115" width="12" height="10" fill="#2f6f7a" opacity="0.3"/><rect x="625" y="104" width="12" height="10" fill="#2f6f7a" opacity="0.5"/><rect x="625" y="115" width="12" height="10" fill="#2f6f7a" opacity="0.3"/><rect x="638" y="104" width="12" height="10" fill="#2f6f7a" opacity="0.5"/><rect x="638" y="115" width="12" height="10" fill="#2f6f7a" opacity="0.3"/><rect x="651" y="104" width="12" height="10" fill="#2f6f7a" opacity="0.5"/><rect x="651" y="115" width="12" height="10" fill="#2f6f7a" opacity="0.3"/>
<path d="M508 115 H552" stroke="#6b6b66" stroke-width="1.2"/><path d="M546 111 L554 115 L546 119" fill="none" stroke="#6b6b66" stroke-width="1.2" stroke-linecap="round" stroke-linejoin="round"/>
<text x="529" y="107" font-size="10.5" fill="#6b6b66" text-anchor="middle">2× tokens</text>
<text x="476" y="166" font-size="11.5" fill="#2f6f7a" text-anchor="middle" font-weight="600">8 vectors</text>
<text x="612" y="166" font-size="11.5" fill="#2f6f7a" text-anchor="middle" font-weight="600">16 vectors</text>
<text x="546" y="196" font-size="12" fill="#1b1b1a" text-anchor="middle">double the tokens → 2× the memory</text>
<text x="546" y="212" font-size="11" fill="#6b6b66" text-anchor="middle">grows as N</text>
</svg>
