<svg xmlns="http://www.w3.org/2000/svg" viewBox="0 0 760 400" font-family="-apple-system,BlinkMacSystemFont,Segoe UI,Roboto,Helvetica,Arial,sans-serif" role="img" aria-label="Interactive attention-pattern explorer. A 20-by-20 causal lower-triangular grid of query-key cells, 210 in all. Five buttons switch the pattern: dense computes all 210 cells; a sliding window of 4 computes 74; window plus 2 global tokens computes 105; learned blocks compute 103; the hybrid stack shows the sliding-window pattern beside a layer strip with one full-attention layer per three cheap layers. A counter reports cells computed and the percentage.">
<style>.bt{cursor:pointer}</style>
<rect width="760" height="400" fill="#ffffff"/>
<!-- grid: x0=90 y0=72, pitch 14, cell 13; grid spans x 90-370, y 72-352 -->
<g id="pb0" class="bt"><rect id="pr0" x="64" y="18" width="60" height="26" rx="5" fill="#f6f6f4" stroke="#1b1b1a"/><text id="pt0" x="94" y="35" font-size="11.5" fill="#1b1b1a" text-anchor="middle" font-weight="700">dense</text></g>
<g id="pb1" class="bt"><rect id="pr1" x="134" y="18" width="104" height="26" rx="5" fill="#f6f6f4" stroke="#ececec"/><text id="pt1" x="186" y="35" font-size="11.5" fill="#1b1b1a" text-anchor="middle">sliding window</text></g>
<g id="pb2" class="bt"><rect id="pr2" x="248" y="18" width="110" height="26" rx="5" fill="#f6f6f4" stroke="#ececec"/><text id="pt2" x="303" y="35" font-size="11.5" fill="#1b1b1a" text-anchor="middle">window + global</text></g>
<g id="pb3" class="bt"><rect id="pr3" x="368" y="18" width="102" height="26" rx="5" fill="#f6f6f4" stroke="#ececec"/><text id="pt3" x="419" y="35" font-size="11.5" fill="#1b1b1a" text-anchor="middle">learned blocks</text></g>
<g id="pb4" class="bt"><rect id="pr4" x="480" y="18" width="92" height="26" rx="5" fill="#f6f6f4" stroke="#ececec"/><text id="pt4" x="526" y="35" font-size="11.5" fill="#1b1b1a" text-anchor="middle">hybrid stack</text></g>
<text x="696" y="35" font-size="11" fill="#6b6b66" text-anchor="end">click a pattern</text>
<text x="90" y="64" font-size="11" fill="#6b6b66">keys (earlier tokens) &#8594;</text>
<text x="78" y="212" font-size="11" fill="#6b6b66" text-anchor="middle" transform="rotate(-90 78 212)">&#8592; queries (later tokens)</text>
<g id="cells">
<rect x="90" y="72" width="13" height="13" fill="#b5482e"/>
<rect x="90" y="86" width="13" height="13" fill="#b5482e"/><rect x="104" y="86" width="13" height="13" fill="#b5482e"/>
<rect x="90" y="100" width="13" height="13" fill="#b5482e"/><rect x="104" y="100" width="13" height="13" fill="#b5482e"/><rect x="118" y="100" width="13" height="13" fill="#b5482e"/>
<rect x="90" y="114" width="13" height="13" fill="#b5482e"/><rect x="104" y="114" width="13" height="13" fill="#b5482e"/><rect x="118" y="114" width="13" height="13" fill="#b5482e"/><rect x="132" y="114" width="13" height="13" fill="#b5482e"/>
<rect x="90" y="128" width="13" height="13" fill="#b5482e"/><rect x="104" y="128" width="13" height="13" fill="#b5482e"/><rect x="118" y="128" width="13" height="13" fill="#b5482e"/><rect x="132" y="128" width="13" height="13" fill="#b5482e"/><rect x="146" y="128" width="13" height="13" fill="#b5482e"/>
<rect x="90" y="142" width="13" height="13" fill="#b5482e"/><rect x="104" y="142" width="13" height="13" fill="#b5482e"/><rect x="118" y="142" width="13" height="13" fill="#b5482e"/><rect x="132" y="142" width="13" height="13" fill="#b5482e"/><rect x="146" y="142" width="13" height="13" fill="#b5482e"/><rect x="160" y="142" width="13" height="13" fill="#b5482e"/>
<rect x="90" y="156" width="13" height="13" fill="#b5482e"/><rect x="104" y="156" width="13" height="13" fill="#b5482e"/><rect x="118" y="156" width="13" height="13" fill="#b5482e"/><rect x="132" y="156" width="13" height="13" fill="#b5482e"/><rect x="146" y="156" width="13" height="13" fill="#b5482e"/><rect x="160" y="156" width="13" height="13" fill="#b5482e"/><rect x="174" y="156" width="13" height="13" fill="#b5482e"/>
<rect x="90" y="170" width="13" height="13" fill="#b5482e"/><rect x="104" y="170" width="13" height="13" fill="#b5482e"/><rect x="118" y="170" width="13" height="13" fill="#b5482e"/><rect x="132" y="170" width="13" height="13" fill="#b5482e"/><rect x="146" y="170" width="13" height="13" fill="#b5482e"/><rect x="160" y="170" width="13" height="13" fill="#b5482e"/><rect x="174" y="170" width="13" height="13" fill="#b5482e"/><rect x="188" y="170" width="13" height="13" fill="#b5482e"/>
<rect x="90" y="184" width="13" height="13" fill="#b5482e"/><rect x="104" y="184" width="13" height="13" fill="#b5482e"/><rect x="118" y="184" width="13" height="13" fill="#b5482e"/><rect x="132" y="184" width="13" height="13" fill="#b5482e"/><rect x="146" y="184" width="13" height="13" fill="#b5482e"/><rect x="160" y="184" width="13" height="13" fill="#b5482e"/><rect x="174" y="184" width="13" height="13" fill="#b5482e"/><rect x="188" y="184" width="13" height="13" fill="#b5482e"/><rect x="202" y="184" width="13" height="13" fill="#b5482e"/>
<rect x="90" y="198" width="13" height="13" fill="#b5482e"/><rect x="104" y="198" width="13" height="13" fill="#b5482e"/><rect x="118" y="198" width="13" height="13" fill="#b5482e"/><rect x="132" y="198" width="13" height="13" fill="#b5482e"/><rect x="146" y="198" width="13" height="13" fill="#b5482e"/><rect x="160" y="198" width="13" height="13" fill="#b5482e"/><rect x="174" y="198" width="13" height="13" fill="#b5482e"/><rect x="188" y="198" width="13" height="13" fill="#b5482e"/><rect x="202" y="198" width="13" height="13" fill="#b5482e"/><rect x="216" y="198" width="13" height="13" fill="#b5482e"/>
<rect x="90" y="212" width="13" height="13" fill="#b5482e"/><rect x="104" y="212" width="13" height="13" fill="#b5482e"/><rect x="118" y="212" width="13" height="13" fill="#b5482e"/><rect x="132" y="212" width="13" height="13" fill="#b5482e"/><rect x="146" y="212" width="13" height="13" fill="#b5482e"/><rect x="160" y="212" width="13" height="13" fill="#b5482e"/><rect x="174" y="212" width="13" height="13" fill="#b5482e"/><rect x="188" y="212" width="13" height="13" fill="#b5482e"/><rect x="202" y="212" width="13" height="13" fill="#b5482e"/><rect x="216" y="212" width="13" height="13" fill="#b5482e"/><rect x="230" y="212" width="13" height="13" fill="#b5482e"/>
<rect x="90" y="226" width="13" height="13" fill="#b5482e"/><rect x="104" y="226" width="13" height="13" fill="#b5482e"/><rect x="118" y="226" width="13" height="13" fill="#b5482e"/><rect x="132" y="226" width="13" height="13" fill="#b5482e"/><rect x="146" y="226" width="13" height="13" fill="#b5482e"/><rect x="160" y="226" width="13" height="13" fill="#b5482e"/><rect x="174" y="226" width="13" height="13" fill="#b5482e"/><rect x="188" y="226" width="13" height="13" fill="#b5482e"/><rect x="202" y="226" width="13" height="13" fill="#b5482e"/><rect x="216" y="226" width="13" height="13" fill="#b5482e"/><rect x="230" y="226" width="13" height="13" fill="#b5482e"/><rect x="244" y="226" width="13" height="13" fill="#b5482e"/>
<rect x="90" y="240" width="13" height="13" fill="#b5482e"/><rect x="104" y="240" width="13" height="13" fill="#b5482e"/><rect x="118" y="240" width="13" height="13" fill="#b5482e"/><rect x="132" y="240" width="13" height="13" fill="#b5482e"/><rect x="146" y="240" width="13" height="13" fill="#b5482e"/><rect x="160" y="240" width="13" height="13" fill="#b5482e"/><rect x="174" y="240" width="13" height="13" fill="#b5482e"/><rect x="188" y="240" width="13" height="13" fill="#b5482e"/><rect x="202" y="240" width="13" height="13" fill="#b5482e"/><rect x="216" y="240" width="13" height="13" fill="#b5482e"/><rect x="230" y="240" width="13" height="13" fill="#b5482e"/><rect x="244" y="240" width="13" height="13" fill="#b5482e"/><rect x="258" y="240" width="13" height="13" fill="#b5482e"/>
<rect x="90" y="254" width="13" height="13" fill="#b5482e"/><rect x="104" y="254" width="13" height="13" fill="#b5482e"/><rect x="118" y="254" width="13" height="13" fill="#b5482e"/><rect x="132" y="254" width="13" height="13" fill="#b5482e"/><rect x="146" y="254" width="13" height="13" fill="#b5482e"/><rect x="160" y="254" width="13" height="13" fill="#b5482e"/><rect x="174" y="254" width="13" height="13" fill="#b5482e"/><rect x="188" y="254" width="13" height="13" fill="#b5482e"/><rect x="202" y="254" width="13" height="13" fill="#b5482e"/><rect x="216" y="254" width="13" height="13" fill="#b5482e"/><rect x="230" y="254" width="13" height="13" fill="#b5482e"/><rect x="244" y="254" width="13" height="13" fill="#b5482e"/><rect x="258" y="254" width="13" height="13" fill="#b5482e"/><rect x="272" y="254" width="13" height="13" fill="#b5482e"/>
<rect x="90" y="268" width="13" height="13" fill="#b5482e"/><rect x="104" y="268" width="13" height="13" fill="#b5482e"/><rect x="118" y="268" width="13" height="13" fill="#b5482e"/><rect x="132" y="268" width="13" height="13" fill="#b5482e"/><rect x="146" y="268" width="13" height="13" fill="#b5482e"/><rect x="160" y="268" width="13" height="13" fill="#b5482e"/><rect x="174" y="268" width="13" height="13" fill="#b5482e"/><rect x="188" y="268" width="13" height="13" fill="#b5482e"/><rect x="202" y="268" width="13" height="13" fill="#b5482e"/><rect x="216" y="268" width="13" height="13" fill="#b5482e"/><rect x="230" y="268" width="13" height="13" fill="#b5482e"/><rect x="244" y="268" width="13" height="13" fill="#b5482e"/><rect x="258" y="268" width="13" height="13" fill="#b5482e"/><rect x="272" y="268" width="13" height="13" fill="#b5482e"/><rect x="286" y="268" width="13" height="13" fill="#b5482e"/>
<rect x="90" y="282" width="13" height="13" fill="#b5482e"/><rect x="104" y="282" width="13" height="13" fill="#b5482e"/><rect x="118" y="282" width="13" height="13" fill="#b5482e"/><rect x="132" y="282" width="13" height="13" fill="#b5482e"/><rect x="146" y="282" width="13" height="13" fill="#b5482e"/><rect x="160" y="282" width="13" height="13" fill="#b5482e"/><rect x="174" y="282" width="13" height="13" fill="#b5482e"/><rect x="188" y="282" width="13" height="13" fill="#b5482e"/><rect x="202" y="282" width="13" height="13" fill="#b5482e"/><rect x="216" y="282" width="13" height="13" fill="#b5482e"/><rect x="230" y="282" width="13" height="13" fill="#b5482e"/><rect x="244" y="282" width="13" height="13" fill="#b5482e"/><rect x="258" y="282" width="13" height="13" fill="#b5482e"/><rect x="272" y="282" width="13" height="13" fill="#b5482e"/><rect x="286" y="282" width="13" height="13" fill="#b5482e"/><rect x="300" y="282" width="13" height="13" fill="#b5482e"/>
<rect x="90" y="296" width="13" height="13" fill="#b5482e"/><rect x="104" y="296" width="13" height="13" fill="#b5482e"/><rect x="118" y="296" width="13" height="13" fill="#b5482e"/><rect x="132" y="296" width="13" height="13" fill="#b5482e"/><rect x="146" y="296" width="13" height="13" fill="#b5482e"/><rect x="160" y="296" width="13" height="13" fill="#b5482e"/><rect x="174" y="296" width="13" height="13" fill="#b5482e"/><rect x="188" y="296" width="13" height="13" fill="#b5482e"/><rect x="202" y="296" width="13" height="13" fill="#b5482e"/><rect x="216" y="296" width="13" height="13" fill="#b5482e"/><rect x="230" y="296" width="13" height="13" fill="#b5482e"/><rect x="244" y="296" width="13" height="13" fill="#b5482e"/><rect x="258" y="296" width="13" height="13" fill="#b5482e"/><rect x="272" y="296" width="13" height="13" fill="#b5482e"/><rect x="286" y="296" width="13" height="13" fill="#b5482e"/><rect x="300" y="296" width="13" height="13" fill="#b5482e"/><rect x="314" y="296" width="13" height="13" fill="#b5482e"/>
<rect x="90" y="310" width="13" height="13" fill="#b5482e"/><rect x="104" y="310" width="13" height="13" fill="#b5482e"/><rect x="118" y="310" width="13" height="13" fill="#b5482e"/><rect x="132" y="310" width="13" height="13" fill="#b5482e"/><rect x="146" y="310" width="13" height="13" fill="#b5482e"/><rect x="160" y="310" width="13" height="13" fill="#b5482e"/><rect x="174" y="310" width="13" height="13" fill="#b5482e"/><rect x="188" y="310" width="13" height="13" fill="#b5482e"/><rect x="202" y="310" width="13" height="13" fill="#b5482e"/><rect x="216" y="310" width="13" height="13" fill="#b5482e"/><rect x="230" y="310" width="13" height="13" fill="#b5482e"/><rect x="244" y="310" width="13" height="13" fill="#b5482e"/><rect x="258" y="310" width="13" height="13" fill="#b5482e"/><rect x="272" y="310" width="13" height="13" fill="#b5482e"/><rect x="286" y="310" width="13" height="13" fill="#b5482e"/><rect x="300" y="310" width="13" height="13" fill="#b5482e"/><rect x="314" y="310" width="13" height="13" fill="#b5482e"/><rect x="328" y="310" width="13" height="13" fill="#b5482e"/>
<rect x="90" y="324" width="13" height="13" fill="#b5482e"/><rect x="104" y="324" width="13" height="13" fill="#b5482e"/><rect x="118" y="324" width="13" height="13" fill="#b5482e"/><rect x="132" y="324" width="13" height="13" fill="#b5482e"/><rect x="146" y="324" width="13" height="13" fill="#b5482e"/><rect x="160" y="324" width="13" height="13" fill="#b5482e"/><rect x="174" y="324" width="13" height="13" fill="#b5482e"/><rect x="188" y="324" width="13" height="13" fill="#b5482e"/><rect x="202" y="324" width="13" height="13" fill="#b5482e"/><rect x="216" y="324" width="13" height="13" fill="#b5482e"/><rect x="230" y="324" width="13" height="13" fill="#b5482e"/><rect x="244" y="324" width="13" height="13" fill="#b5482e"/><rect x="258" y="324" width="13" height="13" fill="#b5482e"/><rect x="272" y="324" width="13" height="13" fill="#b5482e"/><rect x="286" y="324" width="13" height="13" fill="#b5482e"/><rect x="300" y="324" width="13" height="13" fill="#b5482e"/><rect x="314" y="324" width="13" height="13" fill="#b5482e"/><rect x="328" y="324" width="13" height="13" fill="#b5482e"/><rect x="342" y="324" width="13" height="13" fill="#b5482e"/>
<rect x="90" y="338" width="13" height="13" fill="#b5482e"/><rect x="104" y="338" width="13" height="13" fill="#b5482e"/><rect x="118" y="338" width="13" height="13" fill="#b5482e"/><rect x="132" y="338" width="13" height="13" fill="#b5482e"/><rect x="146" y="338" width="13" height="13" fill="#b5482e"/><rect x="160" y="338" width="13" height="13" fill="#b5482e"/><rect x="174" y="338" width="13" height="13" fill="#b5482e"/><rect x="188" y="338" width="13" height="13" fill="#b5482e"/><rect x="202" y="338" width="13" height="13" fill="#b5482e"/><rect x="216" y="338" width="13" height="13" fill="#b5482e"/><rect x="230" y="338" width="13" height="13" fill="#b5482e"/><rect x="244" y="338" width="13" height="13" fill="#b5482e"/><rect x="258" y="338" width="13" height="13" fill="#b5482e"/><rect x="272" y="338" width="13" height="13" fill="#b5482e"/><rect x="286" y="338" width="13" height="13" fill="#b5482e"/><rect x="300" y="338" width="13" height="13" fill="#b5482e"/><rect x="314" y="338" width="13" height="13" fill="#b5482e"/><rect x="328" y="338" width="13" height="13" fill="#b5482e"/><rect x="342" y="338" width="13" height="13" fill="#b5482e"/><rect x="356" y="338" width="13" height="13" fill="#b5482e"/>
</g>
<text x="255" y="115" font-size="10.5" fill="#6b6b66" text-anchor="middle" opacity="0.8">future keys (masked)</text>
<text x="90" y="370" font-size="11" fill="#6b6b66">each cell = one query&#8211;key score</text>
<text x="420" y="88" font-size="11" fill="#6b6b66">score-matrix cells computed:</text>
<text id="cnt" x="420" y="110" font-size="15" fill="#1b1b1a" font-weight="700">210 of 210 &#8212; 100%</text>
<text id="ex1" x="420" y="134" font-size="11.5" fill="#6b6b66">Every token attends to every earlier token &#8212;</text>
<text id="ex2" x="420" y="150" font-size="11.5" fill="#6b6b66">exact recall anywhere, at O(N&#178;) compute.</text>
<rect x="420" y="158" width="10" height="10" fill="#b5482e"/>
<text x="436" y="167" font-size="10.5" fill="#6b6b66">computed</text>
<rect x="510" y="158" width="10" height="10" fill="#f6f6f4" stroke="#ececec"/>
<text x="526" y="167" font-size="10.5" fill="#6b6b66">skipped</text>
<g id="stack" display="none">
<text x="420" y="196" font-size="11" fill="#1b1b1a" font-weight="700">the layer stack: 1 full per 3 cheap</text>
<rect x="420" y="204" width="180" height="18" rx="3" fill="#b5482e" fill-opacity="0.12" stroke="#b5482e"/><text x="428" y="217" font-size="10.5" fill="#b5482e" font-weight="700">full attention</text>
<rect x="420" y="226" width="180" height="18" rx="3" fill="#f6f6f4" stroke="#ececec"/><text x="428" y="239" font-size="10.5" fill="#6b6b66">sliding window</text>
<rect x="420" y="248" width="180" height="18" rx="3" fill="#f6f6f4" stroke="#ececec"/><text x="428" y="261" font-size="10.5" fill="#6b6b66">sliding window</text>
<rect x="420" y="270" width="180" height="18" rx="3" fill="#f6f6f4" stroke="#ececec"/><text x="428" y="283" font-size="10.5" fill="#6b6b66">sliding window</text>
<rect x="420" y="292" width="180" height="18" rx="3" fill="#b5482e" fill-opacity="0.12" stroke="#b5482e"/><text x="428" y="305" font-size="10.5" fill="#b5482e" font-weight="700">full attention</text>
<rect x="420" y="314" width="180" height="18" rx="3" fill="#f6f6f4" stroke="#ececec"/><text x="428" y="327" font-size="10.5" fill="#6b6b66">sliding window</text>
<rect x="420" y="336" width="180" height="18" rx="3" fill="#f6f6f4" stroke="#ececec"/><text x="428" y="349" font-size="10.5" fill="#6b6b66">sliding window</text>
<rect x="420" y="358" width="180" height="18" rx="3" fill="#f6f6f4" stroke="#ececec"/><text x="428" y="371" font-size="10.5" fill="#6b6b66">sliding window</text>
<text x="606" y="240" font-size="10.5" fill="#6b6b66">&#8592; the grid shows</text>
<text x="606" y="254" font-size="10.5" fill="#6b6b66">these layers</text>
</g>
<script><![CDATA[
(function () {
  var N = 20, K = 4, G = 2, TOT = 210;
  var cells = document.getElementById('cells').children;
  var BL = [[2, 0], [3, 1], [4, 2], [4, 0]];
  function blk(i, j) {
    var r = (i / 4) | 0, c = (j / 4) | 0;
    for (var b = 0; b < BL.length; b++) if (BL[b][0] === r && BL[b][1] === c) return true;
    return false;
  }
  function on(m, i, j) {
    if (m === 0) return true;
    if (m === 1 || m === 4) return i - j < K;
    if (m === 2) return i - j < K || j < G;
    return i - j < 2 || blk(i, j);
  }
  var EX = [
    ['Every token attends to every earlier token —', 'exact recall anywhere, at O(N²) compute.'],
    ['Each token sees only the last 4 keys — cheap,', 'but any long-range link is simply gone.'],
    ['A few global tokens anchor the start: every', 'token can still reach them, and it stays O(N).'],
    ['The model learns which blocks to keep —', 'sparsity trained end-to-end (NSA, MoBA, DSA).'],
    ['Cheap layers fill most of the stack; a minority', 'of full-attention layers does precise recall.']
  ];
  var cnt = document.getElementById('cnt'), ex1 = document.getElementById('ex1'),
      ex2 = document.getElementById('ex2'), stack = document.getElementById('stack');
  function set(m) {
    var idx = 0, c = 0;
    for (var i = 0; i < N; i++) for (var j = 0; j <= i; j++) {
      var o = on(m, i, j);
      cells[idx].setAttribute('fill', o ? '#b5482e' : '#f6f6f4');
      if (o) c++;
      idx++;
    }
    cnt.textContent = c + ' of ' + TOT + ' — ' + Math.round(c / TOT * 100) + '%' + (m === 4 ? ' (cheap layers)' : '');
    ex1.textContent = EX[m][0];
    ex2.textContent = EX[m][1];
    stack.setAttribute('display', m === 4 ? 'inline' : 'none');
    for (var k = 0; k < 5; k++) {
      document.getElementById('pr' + k).setAttribute('stroke', k === m ? '#1b1b1a' : '#ececec');
      document.getElementById('pt' + k).setAttribute('font-weight', k === m ? '700' : '400');
    }
  }
  for (var k = 0; k < 5; k++) (function (m) {
    document.getElementById('pb' + m).addEventListener('click', function () { set(m); });
  })(k);
})();
]]></script>
</svg>
