<svg xmlns="http://www.w3.org/2000/svg" viewBox="0 0 760 440" font-family="-apple-system,BlinkMacSystemFont,Segoe UI,Roboto,Helvetica,Arial,sans-serif" role="img" aria-label="Context window frontier 2020-2026"><rect width="760" height="440" fill="#ffffff"/><line x1="64" y1="388.0" x2="736" y2="388.0" stroke="#ececec"/><text x="54" y="392.0" font-size="12" fill="#6b6b66" text-anchor="end">1K</text><line x1="64" y1="302.3" x2="736" y2="302.3" stroke="#ececec"/><text x="54" y="306.3" font-size="12" fill="#6b6b66" text-anchor="end">10K</text><line x1="64" y1="216.6" x2="736" y2="216.6" stroke="#ececec"/><text x="54" y="220.6" font-size="12" fill="#6b6b66" text-anchor="end">100K</text><line x1="64" y1="130.9" x2="736" y2="130.9" stroke="#ececec"/><text x="54" y="134.9" font-size="12" fill="#6b6b66" text-anchor="end">1M</text><line x1="64" y1="45.1" x2="736" y2="45.1" stroke="#ececec"/><text x="54" y="49.1" font-size="12" fill="#6b6b66" text-anchor="end">10M</text><text x="64.0" y="410" font-size="12" fill="#6b6b66" text-anchor="middle">2020</text><text x="164.3" y="410" font-size="12" fill="#6b6b66" text-anchor="middle">2021</text><text x="264.6" y="410" font-size="12" fill="#6b6b66" text-anchor="middle">2022</text><text x="364.9" y="410" font-size="12" fill="#6b6b66" text-anchor="middle">2023</text><text x="465.2" y="410" font-size="12" fill="#6b6b66" text-anchor="middle">2024</text><text x="565.5" y="410" font-size="12" fill="#6b6b66" text-anchor="middle">2025</text><text x="665.8" y="410" font-size="12" fill="#6b6b66" text-anchor="middle">2026</text><path d="M 104.1 361.3 L 354.9 361.3 L 354.9 335.5 L 385.0 335.5 L 385.0 309.7 L 415.0 309.7 L 415.0 216.6 L 455.2 216.6 L 455.2 190.8 L 477.2 190.8 L 477.2 130.9 L 515.3 130.9 L 515.3 105.1 L 569.5 105.1 L 569.5 79.3 L 591.6 79.3 L 591.6 45.1 L 736.0 45.1" fill="none" stroke="#b5482e" stroke-width="2.2"/><text x="18" y="208" font-size="12.5" fill="#1b1b1a" text-anchor="middle" transform="rotate(-90 18 208)">Largest context window available (log scale)</text><circle cx="104.1" cy="361.3" r="4" fill="#b5482e"/><text x="112.1" y="365.3" font-size="12.5" fill="#1b1b1a" font-weight="600">GPT-3</text><circle cx="354.9" cy="335.5" r="4" fill="#b5482e"/><circle cx="385.0" cy="309.7" r="4" fill="#b5482e"/><text x="393.0" y="313.7" font-size="12.5" fill="#1b1b1a" font-weight="600">GPT-4</text><circle cx="415.0" cy="216.6" r="4" fill="#b5482e"/><text x="423.0" y="220.6" font-size="12.5" fill="#1b1b1a" font-weight="600">Claude 2</text><circle cx="455.2" cy="190.8" r="4" fill="#b5482e"/><circle cx="477.2" cy="130.9" r="4" fill="#b5482e"/><text x="485.2" y="134.9" font-size="12.5" fill="#1b1b1a" font-weight="600">Gemini 1.5 Pro</text><circle cx="515.3" cy="105.1" r="4" fill="#b5482e"/><circle cx="569.5" cy="79.3" r="4" fill="#b5482e"/><text x="577.5" y="83.3" font-size="12.5" fill="#1b1b1a" font-weight="600">MiniMax-01</text><circle cx="591.6" cy="45.1" r="4" fill="#b5482e"/><text x="599.6" y="49.1" font-size="12.5" fill="#1b1b1a" font-weight="600">Llama 4 Scout</text><circle cx="655.8" cy="130.9" r="3.6" fill="#6b6b66"/><circle cx="672.8" cy="130.9" r="3.6" fill="#6b6b66"/><circle cx="689.9" cy="130.9" r="3.6" fill="#6b6b66"/><circle cx="706.9" cy="130.9" r="3.6" fill="#6b6b66"/><text x="736.0" y="152.9" font-size="11" fill="#6b6b66" text-anchor="end">Grok · GPT-5 · Claude Opus · DeepSeek-V4 — all 1M</text><text x="64" y="18" font-size="13" fill="#1b1b1a" font-weight="700">~5,000× in five years</text></svg>