<svg xmlns="http://www.w3.org/2000/svg" viewBox="0 0 760 440" font-family="-apple-system,BlinkMacSystemFont,Segoe UI,Roboto,Helvetica,Arial,sans-serif" role="img" aria-label="Context window growth 2020-2026"><rect width="760" height="440" fill="#ffffff"/><line x1="64" y1="388.0" x2="736" y2="388.0" stroke="#ececec"/><text x="54" y="392.0" font-size="12" fill="#6b6b66" text-anchor="end">1K</text><line x1="64" y1="302.3" x2="736" y2="302.3" stroke="#ececec"/><text x="54" y="306.3" font-size="12" fill="#6b6b66" text-anchor="end">10K</text><line x1="64" y1="216.6" x2="736" y2="216.6" stroke="#ececec"/><text x="54" y="220.6" font-size="12" fill="#6b6b66" text-anchor="end">100K</text><line x1="64" y1="130.9" x2="736" y2="130.9" stroke="#ececec"/><text x="54" y="134.9" font-size="12" fill="#6b6b66" text-anchor="end">1M</text><line x1="64" y1="45.1" x2="736" y2="45.1" stroke="#ececec"/><text x="54" y="49.1" font-size="12" fill="#6b6b66" text-anchor="end">10M</text><text x="64.0" y="410" font-size="12" fill="#6b6b66" text-anchor="middle">2020</text><text x="167.4" y="410" font-size="12" fill="#6b6b66" text-anchor="middle">2021</text><text x="270.8" y="410" font-size="12" fill="#6b6b66" text-anchor="middle">2022</text><text x="374.2" y="410" font-size="12" fill="#6b6b66" text-anchor="middle">2023</text><text x="477.5" y="410" font-size="12" fill="#6b6b66" text-anchor="middle">2024</text><text x="580.9" y="410" font-size="12" fill="#6b6b66" text-anchor="middle">2025</text><text x="684.3" y="410" font-size="12" fill="#6b6b66" text-anchor="middle">2026</text><path d="M105.4 361.3 L365.9 335.5 L394.8 309.7 L428.9 216.6 L462.0 207.4 L467.2 190.8 L489.9 130.9 L528.2 105.1 L607.8 45.1" fill="none" stroke="#b5482e" stroke-width="2.5"/><text x="18" y="208" font-size="12.5" fill="#1b1b1a" text-anchor="middle" transform="rotate(-90 18 208)">Max context window (tokens, log scale)</text><circle cx="105.4" cy="361.3" r="4.5" fill="#b5482e"/><text x="113.4" y="365.3" font-size="12.5" fill="#1b1b1a" font-weight="600">GPT-3</text><circle cx="365.9" cy="335.5" r="3" fill="#6b6b66"/><circle cx="394.8" cy="309.7" r="4.5" fill="#b5482e"/><text x="402.8" y="313.7" font-size="12.5" fill="#1b1b1a" font-weight="600">GPT-4</text><circle cx="428.9" cy="216.6" r="4.5" fill="#b5482e"/><text x="436.9" y="220.6" font-size="12.5" fill="#1b1b1a" font-weight="600">Claude 2</text><circle cx="467.2" cy="190.8" r="3" fill="#6b6b66"/><circle cx="462.0" cy="207.4" r="3" fill="#6b6b66"/><circle cx="489.9" cy="130.9" r="4.5" fill="#b5482e"/><text x="497.9" y="134.9" font-size="12.5" fill="#1b1b1a" font-weight="600">Gemini 1.5 Pro</text><circle cx="515.8" cy="207.4" r="3" fill="#6b6b66"/><circle cx="528.2" cy="105.1" r="3" fill="#6b6b66"/><circle cx="535.4" cy="207.4" r="3" fill="#6b6b66"/><circle cx="578.9" cy="207.4" r="3" fill="#6b6b66"/><circle cx="588.2" cy="130.9" r="3" fill="#6b6b66"/><circle cx="609.9" cy="130.9" r="3" fill="#6b6b66"/><circle cx="607.8" cy="45.1" r="4.5" fill="#b5482e"/><text x="615.8" y="49.1" font-size="12.5" fill="#1b1b1a" font-weight="600">Llama 4 Scout</text><circle cx="697.7" cy="130.9" r="3" fill="#6b6b66"/><text x="64" y="18" font-size="13" fill="#1b1b1a" font-weight="700">~5,000× in five years</text></svg>