<svg xmlns="http://www.w3.org/2000/svg" viewBox="0 0 760 440" font-family="-apple-system,BlinkMacSystemFont,Segoe UI,Roboto,Helvetica,Arial,sans-serif" role="img" aria-label="Context window growth 2020-2026"><rect width="760" height="440" fill="#ffffff"/><line x1="64" y1="388.0" x2="736" y2="388.0" stroke="#ececec"/><text x="54" y="392.0" font-size="12" fill="#6b6b66" text-anchor="end">1K</text><line x1="64" y1="302.3" x2="736" y2="302.3" stroke="#ececec"/><text x="54" y="306.3" font-size="12" fill="#6b6b66" text-anchor="end">10K</text><line x1="64" y1="216.6" x2="736" y2="216.6" stroke="#ececec"/><text x="54" y="220.6" font-size="12" fill="#6b6b66" text-anchor="end">100K</text><line x1="64" y1="130.9" x2="736" y2="130.9" stroke="#ececec"/><text x="54" y="134.9" font-size="12" fill="#6b6b66" text-anchor="end">1M</text><line x1="64" y1="45.1" x2="736" y2="45.1" stroke="#ececec"/><text x="54" y="49.1" font-size="12" fill="#6b6b66" text-anchor="end">10M</text><text x="64.0" y="410" font-size="12" fill="#6b6b66" text-anchor="middle">2020</text><text x="165.8" y="410" font-size="12" fill="#6b6b66" text-anchor="middle">2021</text><text x="267.6" y="410" font-size="12" fill="#6b6b66" text-anchor="middle">2022</text><text x="369.5" y="410" font-size="12" fill="#6b6b66" text-anchor="middle">2023</text><text x="471.3" y="410" font-size="12" fill="#6b6b66" text-anchor="middle">2024</text><text x="573.1" y="410" font-size="12" fill="#6b6b66" text-anchor="middle">2025</text><text x="674.9" y="410" font-size="12" fill="#6b6b66" text-anchor="middle">2026</text><path d="M104.7 361.3 L361.3 335.5 L389.8 309.7 L423.4 216.6 L456.0 207.4 L461.1 190.8 L483.5 130.9 L521.2 105.1 L577.2 79.3 L599.6 45.1" fill="none" stroke="#b5482e" stroke-width="2.5"/><text x="18" y="208" font-size="12.5" fill="#1b1b1a" text-anchor="middle" transform="rotate(-90 18 208)">Max context window (tokens, log scale)</text><circle cx="104.7" cy="361.3" r="4.5" fill="#b5482e"/><text x="112.7" y="365.3" font-size="12.5" fill="#1b1b1a" font-weight="600" text-anchor="start">GPT-3</text><circle cx="361.3" cy="335.5" r="3" fill="#6b6b66"/><circle cx="389.8" cy="309.7" r="4.5" fill="#b5482e"/><text x="397.8" y="313.7" font-size="12.5" fill="#1b1b1a" font-weight="600" text-anchor="start">GPT-4</text><circle cx="423.4" cy="216.6" r="4.5" fill="#b5482e"/><text x="431.4" y="220.6" font-size="12.5" fill="#1b1b1a" font-weight="600" text-anchor="start">Claude 2</text><circle cx="461.1" cy="190.8" r="3" fill="#6b6b66"/><circle cx="456.0" cy="207.4" r="3" fill="#6b6b66"/><circle cx="483.5" cy="130.9" r="4.5" fill="#b5482e"/><text x="491.5" y="134.9" font-size="12.5" fill="#1b1b1a" font-weight="600" text-anchor="start">Gemini 1.5 Pro</text><circle cx="508.9" cy="207.4" r="3" fill="#6b6b66"/><circle cx="521.2" cy="105.1" r="3" fill="#6b6b66"/><circle cx="528.3" cy="207.4" r="3" fill="#6b6b66"/><circle cx="571.1" cy="207.4" r="3" fill="#6b6b66"/><circle cx="580.2" cy="130.9" r="3" fill="#6b6b66"/><circle cx="577.2" cy="79.3" r="4.5" fill="#b5482e"/><text x="585.2" y="83.3" font-size="12.5" fill="#1b1b1a" font-weight="600" text-anchor="start">MiniMax-01</text><circle cx="601.6" cy="130.9" r="3" fill="#6b6b66"/><circle cx="599.6" cy="45.1" r="4.5" fill="#b5482e"/><text x="607.6" y="49.1" font-size="12.5" fill="#1b1b1a" font-weight="600" text-anchor="start">Llama 4 Scout</text><circle cx="636.2" cy="130.9" r="3" fill="#6b6b66"/><circle cx="705.5" cy="130.9" r="4.5" fill="#b5482e"/><text x="697.5" y="134.9" font-size="12.5" fill="#1b1b1a" font-weight="600" text-anchor="end">DeepSeek-V4</text><circle cx="688.1" cy="130.9" r="3" fill="#6b6b66"/><text x="64" y="18" font-size="13" fill="#1b1b1a" font-weight="700">~5,000× in five years</text></svg>