<svg xmlns="http://www.w3.org/2000/svg" viewBox="0 0 760 380" font-family="-apple-system,BlinkMacSystemFont,Segoe UI,Roboto,Helvetica,Arial,sans-serif" role="img" aria-label="KV cache size by attention scheme"><rect width="760" height="380" fill="#ffffff"/><line x1="70" y1="334.0" x2="640" y2="334.0" stroke="#ececec"/><text x="60" y="338.0" font-size="12" fill="#6b6b66" text-anchor="end">100</text><line x1="70" y1="217.2" x2="640" y2="217.2" stroke="#ececec"/><text x="60" y="221.2" font-size="12" fill="#6b6b66" text-anchor="end">1K</text><line x1="70" y1="100.3" x2="640" y2="100.3" stroke="#ececec"/><text x="60" y="104.3" font-size="12" fill="#6b6b66" text-anchor="end">10K</text><rect x="105.6" y="40.1" width="71.3" height="293.9" fill="#6b6b66" rx="3"/><text x="141.3" y="22.1" font-size="13" fill="#1b1b1a" text-anchor="middle" font-weight="700">1×</text><text x="141.3" y="36.1" font-size="11" fill="#6b6b66" text-anchor="middle">32,768</text><text x="141.3" y="354.0" font-size="12" fill="#1b1b1a" text-anchor="middle">MHA (baseline)</text><rect x="248.1" y="180.8" width="71.3" height="153.2" fill="#2f6f7a" rx="3"/><text x="283.8" y="162.8" font-size="13" fill="#1b1b1a" text-anchor="middle" font-weight="700">16×</text><text x="283.8" y="176.8" font-size="11" fill="#6b6b66" text-anchor="middle">2,048</text><text x="283.8" y="354.0" font-size="12" fill="#1b1b1a" text-anchor="middle">GQA (8 groups)</text><rect x="390.6" y="245.2" width="71.3" height="88.8" fill="#b5482e" rx="3"/><text x="426.3" y="227.2" font-size="13" fill="#1b1b1a" text-anchor="middle" font-weight="700">57×</text><text x="426.3" y="241.2" font-size="11" fill="#6b6b66" text-anchor="middle">576</text><text x="426.3" y="354.0" font-size="12" fill="#1b1b1a" text-anchor="middle">MLA (DeepSeek)</text><rect x="533.1" y="286.3" width="71.3" height="47.7" fill="#2f6f7a" rx="3"/><text x="568.8" y="268.3" font-size="13" fill="#1b1b1a" text-anchor="middle" font-weight="700">128×</text><text x="568.8" y="282.3" font-size="11" fill="#6b6b66" text-anchor="middle">256</text><text x="568.8" y="354.0" font-size="12" fill="#1b1b1a" text-anchor="middle">MQA (1 KV head)</text><text x="20" y="182" font-size="12.5" fill="#1b1b1a" text-anchor="middle" transform="rotate(-90 20 182)">KV floats / token / layer (log)</text><text x="652" y="44" font-size="11.5" fill="#6b6b66">128 heads,</text><text x="652" y="60" font-size="11.5" fill="#6b6b66">d_head = 128,</text><text x="652" y="76" font-size="11.5" fill="#6b6b66">K + V cached</text></svg>